# xmcd CD database file
# Copyright (C) 1993-1998 Ti Kan
#
# Track frame offsets:
#	150
#	13140
#	24153
#	34915
#	45110
#	56780
#	67603
#	79478
#	92085
#	104113
#
# Disc length: 1511 seconds
#
# Revision: 1
# Processed by: cddbd v1.4b41PL1 Copyright (c) Steve Scherf et al.
# Submitted via: NotifyCDPlayer(CDDB) 1.51.3
#
DISCID=7805e50a
DTITLE=Patsy Cline - Early Memories
DYEAR=1900
DGENRE=
TTITLE0=If I Could See The World
TTITLE1=I Can't Forget
TTITLE2=I Can See An Angel
TTITLE3=Three Cigarettes In An Ashtray
TTITLE4=Hungry For Love
TTITLE5=I Don't Wanna
TTITLE6=Let The Teardrops Fall
TTITLE7=Fingerprints
TTITLE8=If I Could Only Stay Asleep
TTITLE9=I Love You Honey
EXTD=
EXTT0=
EXTT1=
EXTT2=
EXTT3=
EXTT4=
EXTT5=
EXTT6=
EXTT7=
EXTT8=
EXTT9=
PLAYORDER=
